<?xml version="1.0" encoding="utf-8"?>
<!-- Generator: Adobe Illustrator 26.0.3, SVG Export Plug-In . SVG Version: 6.00 Build 0)  -->
<svg version="1.1" id="Calque_1" xmlns="http://www.w3.org/2000/svg" xmlns:xlink="http://www.w3.org/1999/xlink" x="0px" y="0px"
	 viewBox="0 0 279 205.2" style="enable-background:new 0 0 279 205.2;" xml:space="preserve">
<style type="text/css">
	.st0{fill:#FFFFFF;stroke:#FFFFFF;stroke-miterlimit:10;}
	.st1{fill:#FFFFFF;}
</style>
<path class="st0" d="M141.2,196.5l-27.6-47.7c-0.4-0.8,0.1-1.7,1-1.7h55.1c0.9,0,1.4,1,1,1.7l-27.6,47.7
	C142.8,197.3,141.7,197.3,141.2,196.5z"/>
<path class="st0" d="M142.7,124.1l27.4,22.8c0.8,0.7,0.3,2-0.7,2h-54.7c-1.1,0-1.6-1.3-0.7-2l27.4-22.8
	C141.7,123.8,142.3,123.8,142.7,124.1z"/>
<g>
	<path class="st1" d="M182.1,126.5c-9.2,0-16.6-7.5-16.6-16.6V49.4c0-9.2,7.5-16.6,16.6-16.6h60.5c9.2,0,16.6,7.5,16.6,16.6v60.5
		c0,9.2-7.5,16.6-16.6,16.6H182.1z M212.4,51.4c-15.5,0-28.2,12.6-28.2,28.2c0,15.5,12.6,28.2,28.2,28.2s28.2-12.6,28.2-28.2
		C240.6,64,227.9,51.4,212.4,51.4z"/>
	<path class="st1" d="M242.6,33.3c8.9,0,16.1,7.2,16.1,16.1v60.5c0,8.9-7.2,16.1-16.1,16.1h-60.5c-8.9,0-16.1-7.2-16.1-16.1V49.4
		c0-8.9,7.2-16.1,16.1-16.1H242.6 M212.4,108.2c15.8,0,28.7-12.9,28.7-28.7c0-15.8-12.9-28.7-28.7-28.7c-15.8,0-28.7,12.9-28.7,28.7
		C183.7,95.4,196.6,108.2,212.4,108.2 M242.6,32.3h-60.5c-9.5,0-17.1,7.7-17.1,17.1v60.5c0,9.5,7.7,17.1,17.1,17.1h60.5
		c9.5,0,17.1-7.7,17.1-17.1V49.4C259.7,39.9,252,32.3,242.6,32.3L242.6,32.3z M212.4,107.2c-15.3,0-27.7-12.4-27.7-27.7
		c0-15.3,12.4-27.7,27.7-27.7c15.3,0,27.7,12.4,27.7,27.7C240.1,94.8,227.7,107.2,212.4,107.2L212.4,107.2z"/>
</g>
<g>
	<path class="st1" d="M251.5,76c-0.4,0-0.7-0.2-0.9-0.5l-23.6-40.9c-0.2-0.3-0.2-0.7,0-1.1c0.2-0.3,0.5-0.5,0.9-0.5h47.3
		c0.4,0,0.7,0.2,0.9,0.5c0.2,0.3,0.2,0.7,0,1.1l-23.6,40.9C252.2,75.8,251.9,76,251.5,76z"/>
	<path class="st1" d="M275.1,33.4c0.3,0,0.4,0.2,0.5,0.3s0.1,0.3,0,0.6L252,75.2c-0.1,0.3-0.4,0.3-0.5,0.3s-0.3,0-0.5-0.3
		l-23.6-40.9c-0.1-0.3,0-0.5,0-0.6s0.2-0.3,0.5-0.3H275.1 M275.1,32.4h-47.3c-1.2,0-2,1.3-1.4,2.3l23.6,40.9
		c0.3,0.5,0.8,0.8,1.4,0.8s1.1-0.3,1.4-0.8l23.6-40.9C277.1,33.7,276.3,32.4,275.1,32.4L275.1,32.4z"/>
</g>
<g>
	<path class="st1" d="M255.3,65.8c-0.2,0-0.4-0.1-0.5-0.1l-41.5-24.4c-0.3-0.2-0.5-0.5-0.5-0.9c0-0.4,0.2-0.7,0.5-0.9l41.1-23.7
		c0.2-0.1,0.3-0.1,0.5-0.1c0.5,0,1.1,0.4,1.1,1.1l0.4,48.2c0,0.4-0.2,0.6-0.3,0.8C255.9,65.6,255.6,65.8,255.3,65.8z"/>
	<path class="st1" d="M255,15.9c0.3,0,0.6,0.2,0.6,0.6l0.4,48.2c0,0.2-0.1,0.3-0.2,0.4c-0.1,0.1-0.3,0.2-0.4,0.2
		c-0.1,0-0.2,0-0.3-0.1l-41.5-24.4c-0.3-0.1-0.3-0.4-0.3-0.5c0-0.1,0-0.3,0.3-0.5L254.7,16C254.8,16,254.9,15.9,255,15.9 M255,14.9
		c-0.3,0-0.5,0.1-0.8,0.2L213,38.9c-1,0.6-1,2.1,0,2.7L254.6,66c0.3,0.2,0.5,0.2,0.8,0.2c0.8,0,1.6-0.7,1.6-1.6l-0.4-48.2
		C256.5,15.6,255.8,14.9,255,14.9L255,14.9z"/>
</g>
<g>
	<path class="st1" d="M206.6,50.8c-0.4,0-0.7-0.2-0.9-0.5c-0.2-0.3-0.2-0.7,0-1.1L229.4,8c0.2-0.3,0.5-0.5,0.9-0.5
		c0.4,0,0.7,0.2,0.9,0.5l24.4,41.5c0.2,0.3,0.2,0.7,0,1.1s-0.5,0.5-0.9,0.5L206.6,50.8z"/>
	<path class="st1" d="M230.4,8c0.1,0,0.3,0,0.5,0.3l24.4,41.5c0.1,0.3,0.1,0.5,0,0.6c0,0.1-0.2,0.3-0.5,0.3l-48.2-0.4
		c-0.3,0-0.4-0.2-0.5-0.3s-0.1-0.3,0-0.6l23.7-41.1C230,8,230.3,8,230.4,8 M230.4,7c-0.5,0-1.1,0.3-1.4,0.8l-23.7,41.1
		c-0.6,1,0.1,2.3,1.3,2.3l48.2,0.4c0,0,0,0,0,0c1.2,0,2-1.3,1.3-2.4L231.7,7.8C231.4,7.3,230.9,7,230.4,7L230.4,7z"/>
</g>
<g>
	<path class="st1" d="M212.5,88.8c-5.2,0-9.4-4.2-9.4-9.4c0-5.2,4.2-9.4,9.4-9.4s9.4,4.2,9.4,9.4C221.8,84.6,217.6,88.8,212.5,88.8z
		"/>
	<path class="st1" d="M212.5,70.5c4.9,0,8.9,4,8.9,8.9s-4,8.9-8.9,8.9s-8.9-4-8.9-8.9S207.6,70.5,212.5,70.5 M212.5,69.5
		c-5.5,0-9.9,4.4-9.9,9.9s4.4,9.9,9.9,9.9s9.9-4.4,9.9-9.9S217.9,69.5,212.5,69.5L212.5,69.5z"/>
</g>
<g>
	<path class="st1" d="M36.8,126.4c-9.2,0-16.6-7.5-16.6-16.6V49.3c0-9.2,7.5-16.6,16.6-16.6h60.5c9.2,0,16.6,7.5,16.6,16.6v60.5
		c0,9.2-7.5,16.6-16.6,16.6H36.8z M67,51.4c-15.5,0-28.2,12.6-28.2,28.2c0,15.5,12.6,28.2,28.2,28.2c15.5,0,28.2-12.6,28.2-28.2
		C95.1,64,82.5,51.4,67,51.4z"/>
	<path class="st1" d="M97.2,33.2c8.9,0,16.1,7.2,16.1,16.1v60.5c0,8.9-7.2,16.1-16.1,16.1H36.8c-8.9,0-16.1-7.2-16.1-16.1V49.3
		c0-8.9,7.2-16.1,16.1-16.1H97.2 M67,108.2c15.8,0,28.7-12.9,28.7-28.7c0-15.8-12.9-28.7-28.7-28.7c-15.8,0-28.7,12.9-28.7,28.7
		C38.3,95.3,51.2,108.2,67,108.2 M97.2,32.2H36.8c-9.5,0-17.1,7.7-17.1,17.1v60.5c0,9.5,7.7,17.1,17.1,17.1h60.5
		c9.5,0,17.1-7.7,17.1-17.1V49.3C114.4,39.9,106.7,32.2,97.2,32.2L97.2,32.2z M67,107.2c-15.3,0-27.7-12.4-27.7-27.7
		c0-15.3,12.4-27.7,27.7-27.7c15.3,0,27.7,12.4,27.7,27.7C94.6,94.8,82.2,107.2,67,107.2L67,107.2z"/>
</g>
<g>
	<path class="st1" d="M27.9,75.9c-0.4,0-0.7-0.2-0.9-0.5L3.3,34.5c-0.2-0.3-0.2-0.7,0-1.1c0.2-0.3,0.5-0.5,0.9-0.5h47.3
		c0.4,0,0.7,0.2,0.9,0.5c0.2,0.3,0.2,0.7,0,1.1L28.8,75.4C28.6,75.7,28.3,75.9,27.9,75.9z"/>
	<path class="st1" d="M51.5,33.4c0.3,0,0.4,0.2,0.5,0.3s0.1,0.3,0,0.6L28.4,75.1c-0.1,0.3-0.4,0.3-0.5,0.3s-0.3,0-0.5-0.3L3.7,34.2
		c-0.1-0.3,0-0.5,0-0.6c0-0.1,0.2-0.3,0.5-0.3H51.5 M51.5,32.4H4.2c-1.2,0-2,1.3-1.4,2.3l23.6,40.9c0.3,0.5,0.8,0.8,1.4,0.8
		s1.1-0.3,1.4-0.8l23.6-40.9C53.5,33.7,52.7,32.4,51.5,32.4L51.5,32.4z"/>
</g>
<g>
	<path class="st1" d="M24,65.7c-0.3,0-0.6-0.1-0.8-0.3c-0.1-0.1-0.3-0.4-0.3-0.8l0.4-48.2c0-0.7,0.6-1.1,1.1-1.1
		c0.2,0,0.4,0,0.5,0.1l41.1,23.7c0.3,0.2,0.5,0.5,0.5,0.9s-0.2,0.7-0.5,0.9L24.5,65.6C24.4,65.7,24.2,65.7,24,65.7L24,65.7z"/>
	<path class="st1" d="M24.4,15.9c0.1,0,0.2,0,0.3,0.1l41.1,23.7c0.3,0.1,0.3,0.4,0.3,0.5c0,0.1,0,0.3-0.3,0.5L24.3,65.1
		c-0.1,0.1-0.2,0.1-0.3,0.1c-0.2,0-0.3-0.1-0.4-0.2c-0.1-0.1-0.2-0.2-0.2-0.4l0.4-48.2C23.8,16.1,24.1,15.9,24.4,15.9 M24.4,14.9
		c-0.8,0-1.6,0.6-1.6,1.6l-0.4,48.2c0,0.9,0.7,1.6,1.6,1.6c0.3,0,0.5-0.1,0.8-0.2l41.5-24.4c1-0.6,1-2.1,0-2.7L25.2,15.1
		C24.9,15,24.7,14.9,24.4,14.9L24.4,14.9z"/>
</g>
<g>
	<path class="st1" d="M24.6,51.1c-0.4,0-0.7-0.2-0.9-0.5s-0.2-0.7,0-1.1L48.1,8c0.2-0.3,0.5-0.5,0.9-0.5c0.4,0,0.7,0.2,0.9,0.5
		l23.7,41.1c0.2,0.3,0.2,0.7,0,1.1c-0.2,0.3-0.5,0.5-0.9,0.5L24.6,51.1z"/>
	<path class="st1" d="M49,8c0.1,0,0.3,0,0.5,0.3l23.7,41.1c0.1,0.3,0,0.5,0,0.6c0,0.1-0.2,0.3-0.5,0.3l-48.2,0.4
		c-0.3,0-0.4-0.2-0.5-0.3c0-0.1-0.1-0.3,0-0.6L48.5,8.2C48.6,8,48.9,8,49,8 M49,7c-0.5,0-1,0.3-1.3,0.8L23.2,49.3
		c-0.6,1,0.1,2.4,1.3,2.4c0,0,0,0,0,0l48.2-0.4c1.2,0,1.9-1.3,1.3-2.3L50.3,7.8C50,7.2,49.5,7,49,7L49,7z"/>
</g>
<g>
	<path class="st1" d="M66.9,88.7c-5.2,0-9.4-4.2-9.4-9.4c0-5.2,4.2-9.4,9.4-9.4s9.4,4.2,9.4,9.4C76.3,84.5,72.1,88.7,66.9,88.7z"/>
	<path class="st1" d="M66.9,70.5c4.9,0,8.9,4,8.9,8.9s-4,8.9-8.9,8.9s-8.9-4-8.9-8.9S62,70.5,66.9,70.5 M66.9,69.5
		c-5.5,0-9.9,4.4-9.9,9.9s4.4,9.9,9.9,9.9c5.5,0,9.9-4.4,9.9-9.9S72.4,69.5,66.9,69.5L66.9,69.5z"/>
</g>
</svg>
